<mxfile host="app.diagrams.net" modified="2023-07-26T08:31:03.738Z" agent="Mozilla/5.0 (Macintosh; Intel Mac OS X 10_15_7) AppleWebKit/537.36 (KHTML, like Gecko) Chrome/114.0.0.0 Safari/537.36" version="21.6.5" etag="SduqiO03xroRw9MTKbIx" type="github">
  <diagram name="Page-1" id="z2BkUGq0YEeDbwVJtP78">
    <mxGraphModel>
      <root>
        <mxCell id="0" />
        <mxCell id="1" parent="0" />
      </root>
    </mxGraphModel>
  </diagram>
</mxfile>
